<svg width="20" height="21" viewBox="0 0 20 21" fill="none" xmlns="http://www.w3.org/2000/svg">
<path d="M8.33984 2.61035C7.19401 2.61035 6.11328 2.83171 5.09766 3.27441C4.08203 3.7041 3.19661 4.29655 2.44141 5.05176C1.6862 5.80697 1.09375 6.69238 0.664062 7.70801C0.221354 8.72363 0 9.80436 0 10.9502C0 12.096 0.221354 13.1768 0.664062 14.1924C1.09375 15.208 1.6862 16.0934 2.44141 16.8486C3.19661 17.6038 4.08203 18.1963 5.09766 18.626C6.11328 19.0687 7.19401 19.29 8.33984 19.29C9.48568 19.29 10.5664 19.0687 11.582 18.626C12.5977 18.1963 13.4831 17.6038 14.2383 16.8486C14.9935 16.0934 15.5859 15.208 16.0156 14.1924C16.4583 13.1768 16.6797 12.096 16.6797 10.9502C16.6797 9.80436 16.4583 8.72363 16.0156 7.70801C15.5859 6.69238 14.9935 5.80697 14.2383 5.05176C13.4831 4.29655 12.5977 3.7041 11.582 3.27441C10.5664 2.83171 9.48568 2.61035 8.33984 2.61035ZM8.33984 4.29004C9.23828 4.29004 10.0814 4.4528 10.8691 4.77832C11.6569 5.10384 12.3438 5.55306 12.9297 6.12598C12.3568 6.47754 11.7415 6.80306 11.084 7.10254C10.4264 7.40202 9.7526 7.66895 9.0625 7.90332L8.90625 7.94238C8.52865 7.30436 8.14128 6.70215 7.74414 6.13574C7.34701 5.56934 6.92708 5.02572 6.48438 4.50488L6.52344 4.54395C6.79688 4.46582 7.08659 4.40397 7.39258 4.3584C7.69857 4.31283 8.01432 4.29004 8.33984 4.29004ZM4.92188 5.24707C5.33854 5.71582 5.73893 6.21061 6.12305 6.73145C6.50716 7.25228 6.86849 7.79264 7.20703 8.35254L7.26562 8.4502C6.51042 8.64551 5.70964 8.79525 4.86328 8.89941C4.01693 9.00358 3.15104 9.06217 2.26562 9.0752H1.95312C2.20052 8.25488 2.57812 7.51921 3.08594 6.86816C3.59375 6.21712 4.19271 5.68327 4.88281 5.2666L4.92188 5.24707ZM3.33984 15.3838C2.81901 14.7979 2.41211 14.1305 2.11914 13.3818C1.82617 12.6331 1.67969 11.8356 1.67969 10.9893C1.67969 10.9893 1.67969 10.986 1.67969 10.9795C1.67969 10.973 1.67969 10.9632 1.67969 10.9502C1.67969 10.9111 1.67969 10.8721 1.67969 10.833C1.67969 10.7939 1.67969 10.7549 1.67969 10.7158H2.24609C3.28776 10.7028 4.30664 10.6214 5.30273 10.4717C6.29883 10.3219 7.27214 10.1104 8.22266 9.83691L8.06641 9.87598C8.20964 10.1234 8.3431 10.3805 8.4668 10.6475C8.5905 10.9144 8.71094 11.1846 8.82812 11.458C8.15104 11.6924 7.51302 11.9821 6.91406 12.3271C6.3151 12.6722 5.75521 13.0531 5.23438 13.4697L5.25391 13.4502L5 13.665C4.70052 13.9255 4.41406 14.1956 4.14062 14.4756C3.86719 14.7555 3.60677 15.0452 3.35938 15.3447L3.33984 15.3838ZM8.33984 17.6104C8.33984 17.6104 8.33659 17.6104 8.33008 17.6104C8.32357 17.6104 8.32031 17.6104 8.32031 17.6104C7.63021 17.6104 6.9694 17.5094 6.33789 17.3076C5.70638 17.1058 5.1237 16.8226 4.58984 16.458L4.60938 16.4775C4.81771 16.2432 5.0293 16.0186 5.24414 15.8037C5.45898 15.5889 5.67708 15.3773 5.89844 15.1689L5.91797 15.1494L6.17188 14.9346C6.65365 14.5309 7.16797 14.1729 7.71484 13.8604C8.26172 13.5479 8.83464 13.2809 9.43359 13.0596L9.51172 13.04C9.73307 13.626 9.94141 14.2575 10.1367 14.9346C10.332 15.6117 10.5013 16.3148 10.6445 17.0439L10.6836 17.2002C10.3451 17.3304 9.97721 17.4313 9.58008 17.5029C9.18294 17.5745 8.78255 17.6104 8.37891 17.6104C8.36589 17.6104 8.35612 17.6104 8.34961 17.6104C8.3431 17.6104 8.33984 17.6104 8.33984 17.6104ZM12.207 16.3799C12.0378 15.6377 11.862 14.9476 11.6797 14.3096C11.4974 13.6715 11.2956 13.0531 11.0742 12.4541L11.1328 12.6494H11.4062C11.4193 12.6494 11.429 12.6494 11.4355 12.6494C11.4421 12.6494 11.4518 12.6494 11.4648 12.6494C11.4779 12.6494 11.4876 12.6494 11.4941 12.6494C11.5007 12.6494 11.5104 12.6494 11.5234 12.6494H12.0898C12.5456 12.6624 12.9948 12.708 13.4375 12.7861C13.8802 12.8643 14.3099 12.9749 14.7266 13.1182L14.668 13.0986C14.4336 13.7757 14.1048 14.391 13.6816 14.9443C13.2585 15.4977 12.7734 15.9697 12.2266 16.3604L12.207 16.3799ZM12.0898 10.9502C11.9987 10.9502 11.9108 10.9502 11.8262 10.9502C11.7415 10.9502 11.6602 10.9502 11.582 10.9502C11.556 10.9502 11.5267 10.9469 11.4941 10.9404C11.4616 10.9339 11.4323 10.9307 11.4062 10.9307C11.3802 10.9307 11.3542 10.9339 11.3281 10.9404C11.3021 10.9469 11.276 10.9502 11.25 10.9502C11.1198 10.9632 10.9961 10.9762 10.8789 10.9893C10.7617 11.0023 10.651 11.0218 10.5469 11.0479L10.5664 11.0283H10.4883C10.3711 10.7549 10.2474 10.4814 10.1172 10.208C9.98698 9.93457 9.85677 9.65462 9.72656 9.36816C10.5469 9.08171 11.3151 8.76921 12.0312 8.43066C12.7474 8.09212 13.4375 7.72103 14.1016 7.31738L14.0039 7.37598C14.3164 7.87077 14.5605 8.41764 14.7363 9.0166C14.9121 9.61556 15 10.2406 15 10.8916C15 10.9046 15 10.9144 15 10.9209C15 10.9274 15 10.9372 15 10.9502C15 11.0153 15 11.0837 15 11.1553C15 11.2269 15 11.3018 15 11.3799C14.5833 11.2367 14.1374 11.1292 13.6621 11.0576C13.1868 10.986 12.6953 10.9502 12.1875 10.9502C12.1745 10.9502 12.1582 10.9502 12.1387 10.9502C12.1191 10.9502 12.1029 10.9502 12.0898 10.9502Z" fill="white"/>
</svg>
