<svg width="20" height="21" viewBox="0 0 20 21" fill="none" xmlns="http://www.w3.org/2000/svg">
<path d="M8.33984 2.60986C7.19401 2.60986 6.11328 2.83122 5.09766 3.27393C4.08203 3.70361 3.19661 4.29606 2.44141 5.05127C1.6862 5.80648 1.09375 6.69189 0.664062 7.70752C0.221354 8.72314 0 9.80387 0 10.9497C0 12.0955 0.221354 13.1763 0.664062 14.1919C1.09375 15.2075 1.6862 16.0929 2.44141 16.8481C3.19661 17.6034 4.08203 18.1958 5.09766 18.6255C6.11328 19.0682 7.19401 19.2896 8.33984 19.2896C9.48568 19.2896 10.5664 19.0682 11.582 18.6255C12.5977 18.1958 13.4831 17.6034 14.2383 16.8481C14.9935 16.0929 15.5859 15.2075 16.0156 14.1919C16.4583 13.1763 16.6797 12.0955 16.6797 10.9497C16.6797 9.80387 16.4583 8.72314 16.0156 7.70752C15.5859 6.69189 14.9935 5.80648 14.2383 5.05127C13.4831 4.29606 12.5977 3.70361 11.582 3.27393C10.5664 2.83122 9.48568 2.60986 8.33984 2.60986ZM8.33984 4.28955C9.23828 4.28955 10.0814 4.45231 10.8691 4.77783C11.6569 5.10335 12.3438 5.55257 12.9297 6.12549C12.3568 6.47705 11.7415 6.80257 11.084 7.10205C10.4264 7.40153 9.7526 7.66846 9.0625 7.90283L8.90625 7.94189C8.52865 7.30387 8.14128 6.70166 7.74414 6.13525C7.34701 5.56885 6.92708 5.02523 6.48438 4.50439L6.52344 4.54346C6.79688 4.46533 7.08659 4.40348 7.39258 4.35791C7.69857 4.31234 8.01432 4.28955 8.33984 4.28955ZM4.92188 5.24658C5.33854 5.71533 5.73893 6.21012 6.12305 6.73096C6.50716 7.25179 6.86849 7.79216 7.20703 8.35205L7.26562 8.44971C6.51042 8.64502 5.70964 8.79476 4.86328 8.89893C4.01693 9.00309 3.15104 9.06169 2.26562 9.07471H1.95312C2.20052 8.25439 2.57812 7.51872 3.08594 6.86768C3.59375 6.21663 4.19271 5.68278 4.88281 5.26611L4.92188 5.24658ZM3.33984 15.3833C2.81901 14.7974 2.41211 14.13 2.11914 13.3813C1.82617 12.6326 1.67969 11.8351 1.67969 10.9888C1.67969 10.9888 1.67969 10.9855 1.67969 10.979C1.67969 10.9725 1.67969 10.9627 1.67969 10.9497C1.67969 10.9106 1.67969 10.8716 1.67969 10.8325C1.67969 10.7935 1.67969 10.7544 1.67969 10.7153H2.24609C3.28776 10.7023 4.30664 10.6209 5.30273 10.4712C6.29883 10.3215 7.27214 10.1099 8.22266 9.83643L8.06641 9.87549C8.20964 10.1229 8.3431 10.38 8.4668 10.647C8.5905 10.9139 8.71094 11.1841 8.82812 11.4575C8.15104 11.6919 7.51302 11.9816 6.91406 12.3267C6.3151 12.6717 5.75521 13.0526 5.23438 13.4692L5.25391 13.4497L5 13.6646C4.70052 13.925 4.41406 14.1951 4.14062 14.4751C3.86719 14.755 3.60677 15.0448 3.35938 15.3442L3.33984 15.3833ZM8.33984 17.6099C8.33984 17.6099 8.33659 17.6099 8.33008 17.6099C8.32357 17.6099 8.32031 17.6099 8.32031 17.6099C7.63021 17.6099 6.9694 17.509 6.33789 17.3071C5.70638 17.1053 5.1237 16.8221 4.58984 16.4575L4.60938 16.4771C4.81771 16.2427 5.0293 16.0181 5.24414 15.8032C5.45898 15.5884 5.67708 15.3768 5.89844 15.1685L5.91797 15.1489L6.17188 14.9341C6.65365 14.5304 7.16797 14.1724 7.71484 13.8599C8.26172 13.5474 8.83464 13.2804 9.43359 13.0591L9.51172 13.0396C9.73307 13.6255 9.94141 14.257 10.1367 14.9341C10.332 15.6112 10.5013 16.3143 10.6445 17.0435L10.6836 17.1997C10.3451 17.3299 9.97721 17.4308 9.58008 17.5024C9.18294 17.5741 8.78255 17.6099 8.37891 17.6099C8.36589 17.6099 8.35612 17.6099 8.34961 17.6099C8.3431 17.6099 8.33984 17.6099 8.33984 17.6099ZM12.207 16.3794C12.0378 15.6372 11.862 14.9471 11.6797 14.3091C11.4974 13.6711 11.2956 13.0526 11.0742 12.4536L11.1328 12.6489H11.4062C11.4193 12.6489 11.429 12.6489 11.4355 12.6489C11.4421 12.6489 11.4518 12.6489 11.4648 12.6489C11.4779 12.6489 11.4876 12.6489 11.4941 12.6489C11.5007 12.6489 11.5104 12.6489 11.5234 12.6489H12.0898C12.5456 12.6619 12.9948 12.7075 13.4375 12.7856C13.8802 12.8638 14.3099 12.9744 14.7266 13.1177L14.668 13.0981C14.4336 13.7752 14.1048 14.3905 13.6816 14.9438C13.2585 15.4972 12.7734 15.9692 12.2266 16.3599L12.207 16.3794ZM12.0898 10.9497C11.9987 10.9497 11.9108 10.9497 11.8262 10.9497C11.7415 10.9497 11.6602 10.9497 11.582 10.9497C11.556 10.9497 11.5267 10.9465 11.4941 10.9399C11.4616 10.9334 11.4323 10.9302 11.4062 10.9302C11.3802 10.9302 11.3542 10.9334 11.3281 10.9399C11.3021 10.9465 11.276 10.9497 11.25 10.9497C11.1198 10.9627 10.9961 10.9757 10.8789 10.9888C10.7617 11.0018 10.651 11.0213 10.5469 11.0474L10.5664 11.0278H10.4883C10.3711 10.7544 10.2474 10.481 10.1172 10.2075C9.98698 9.93408 9.85677 9.65413 9.72656 9.36768C10.5469 9.08122 11.3151 8.76872 12.0312 8.43018C12.7474 8.09163 13.4375 7.72054 14.1016 7.31689L14.0039 7.37549C14.3164 7.87028 14.5605 8.41716 14.7363 9.01611C14.9121 9.61507 15 10.2401 15 10.8911C15 10.9041 15 10.9139 15 10.9204C15 10.9269 15 10.9367 15 10.9497C15 11.0148 15 11.0832 15 11.1548C15 11.2264 15 11.3013 15 11.3794C14.5833 11.2362 14.1374 11.1287 13.6621 11.0571C13.1868 10.9855 12.6953 10.9497 12.1875 10.9497C12.1745 10.9497 12.1582 10.9497 12.1387 10.9497C12.1191 10.9497 12.1029 10.9497 12.0898 10.9497Z" fill="#E94D88"/>
</svg>
