<svg width="20" height="21" viewBox="0 0 20 21" fill="none" xmlns="http://www.w3.org/2000/svg">
<path d="M7.08984 5.38379H8.65234V2.72754C8.3138 2.68848 7.95573 2.65918 7.57812 2.63965C7.20052 2.62012 6.8099 2.61035 6.40625 2.61035C6.40625 2.61035 6.40299 2.61035 6.39648 2.61035C6.38997 2.61035 6.38021 2.61035 6.36719 2.61035C5.23438 2.61035 4.31641 2.94889 3.61328 3.62598C2.91016 4.30306 2.55859 5.27311 2.55859 6.53613V8.72363H0V11.6924H2.55859V19.29H5.625V11.6924H8.18359L8.55469 8.72363H5.625V6.8291C5.625 6.38639 5.71615 6.03483 5.89844 5.77441C6.08073 5.514 6.47786 5.38379 7.08984 5.38379Z" fill="white"/>
</svg>
