<svg width="20" height="21" viewBox="0 0 20 21" fill="none" xmlns="http://www.w3.org/2000/svg">
<path d="M7.08984 5.3833H8.65234V2.72705C8.3138 2.68799 7.95573 2.65869 7.57812 2.63916C7.20052 2.61963 6.8099 2.60986 6.40625 2.60986C6.40625 2.60986 6.40299 2.60986 6.39648 2.60986C6.38997 2.60986 6.38021 2.60986 6.36719 2.60986C5.23438 2.60986 4.31641 2.9484 3.61328 3.62549C2.91016 4.30257 2.55859 5.27262 2.55859 6.53564V8.72314H0V11.6919H2.55859V19.2896H5.625V11.6919H8.18359L8.55469 8.72314H5.625V6.82861C5.625 6.38591 5.71615 6.03434 5.89844 5.77393C6.08073 5.51351 6.47786 5.3833 7.08984 5.3833Z" fill="#4470CF"/>
</svg>
