<svg width="20" height="21" viewBox="0 0 20 21" fill="none" xmlns="http://www.w3.org/2000/svg">
<path d="M12.793 5.50098C12.5195 5.50098 12.2852 5.59863 12.0898 5.79395C11.8945 5.98926 11.7969 6.22363 11.7969 6.49707C11.7969 6.77051 11.8945 7.00488 12.0898 7.2002C12.2852 7.39551 12.5195 7.49316 12.793 7.49316C13.0664 7.49316 13.3008 7.39551 13.4961 7.2002C13.6914 7.00488 13.7891 6.77051 13.7891 6.49707C13.7891 6.22363 13.6914 5.98926 13.4961 5.79395C13.3008 5.59863 13.0664 5.50098 12.793 5.50098ZM16.6211 7.5127C16.6081 7.14811 16.569 6.79329 16.5039 6.44824C16.4388 6.10319 16.3477 5.7679 16.2305 5.44238V5.50098C16.1263 5.2015 15.9928 4.93132 15.8301 4.69043C15.6673 4.44954 15.4818 4.22493 15.2734 4.0166C15.0781 3.80827 14.8568 3.62272 14.6094 3.45996C14.362 3.2972 14.1016 3.16374 13.8281 3.05957H13.7891C13.4896 2.94238 13.1706 2.84798 12.832 2.77637C12.4935 2.70475 12.1419 2.66895 11.7773 2.66895C11.3346 2.6429 10.9342 2.62663 10.5762 2.62012C10.2181 2.61361 9.47266 2.61035 8.33984 2.61035C7.20703 2.61035 6.46159 2.61361 6.10352 2.62012C5.74544 2.62663 5.34505 2.6429 4.90234 2.66895C4.53776 2.66895 4.18294 2.70475 3.83789 2.77637C3.49284 2.84798 3.15755 2.94889 2.83203 3.0791L2.89062 3.05957C2.59115 3.16374 2.32096 3.2972 2.08008 3.45996C1.83919 3.62272 1.61458 3.80827 1.40625 4.0166C1.19792 4.21191 1.01237 4.43327 0.849609 4.68066C0.686849 4.92806 0.553385 5.18848 0.449219 5.46191V5.50098C0.332031 5.80046 0.23763 6.11947 0.166016 6.45801C0.094401 6.79655 0.0585938 7.14811 0.0585938 7.5127C0.0325521 7.9554 0.016276 8.35579 0.00976562 8.71387C0.00325521 9.07194 0 9.81738 0 10.9502C0 12.083 0.00325521 12.8285 0.00976562 13.1865C0.016276 13.5446 0.0325521 13.945 0.0585938 14.3877C0.0585938 14.7523 0.094401 15.1071 0.166016 15.4521C0.23763 15.7972 0.338542 16.1325 0.46875 16.458L0.449219 16.3994C0.553385 16.6989 0.686849 16.9723 0.849609 17.2197C1.01237 17.4671 1.19792 17.6885 1.40625 17.8838C1.61458 18.0921 1.83919 18.2777 2.08008 18.4404C2.32096 18.6032 2.57812 18.7367 2.85156 18.8408H2.89062C3.1901 18.958 3.50911 19.0524 3.84766 19.124C4.1862 19.1956 4.53776 19.2314 4.90234 19.2314C5.34505 19.2575 5.74544 19.2738 6.10352 19.2803C6.46159 19.2868 7.20703 19.29 8.33984 19.29C9.47266 19.29 10.2181 19.2868 10.5762 19.2803C10.9342 19.2738 11.3346 19.2575 11.7773 19.2314C12.1419 19.2314 12.4967 19.1956 12.8418 19.124C13.1868 19.0524 13.5221 18.9515 13.8477 18.8213L13.7891 18.8408C14.0885 18.7367 14.362 18.6032 14.6094 18.4404C14.8568 18.2777 15.0781 18.0921 15.2734 17.8838C15.4818 17.6755 15.6673 17.4508 15.8301 17.21C15.9928 16.9691 16.1263 16.7119 16.2305 16.4385V16.3994C16.3477 16.0999 16.4388 15.7809 16.5039 15.4424C16.569 15.1038 16.6081 14.7523 16.6211 14.3877C16.6211 13.945 16.6309 13.5446 16.6504 13.1865C16.6699 12.8285 16.6797 12.083 16.6797 10.9502C16.6797 9.81738 16.6764 9.07194 16.6699 8.71387C16.6634 8.35579 16.6471 7.9554 16.6211 7.5127ZM15.1172 14.29C15.1172 14.5635 15.0911 14.8337 15.0391 15.1006C14.987 15.3675 14.9154 15.6247 14.8242 15.8721L14.8438 15.833C14.7656 16.0153 14.6745 16.1878 14.5703 16.3506C14.4661 16.5133 14.349 16.6598 14.2188 16.79C14.0885 16.9202 13.9421 17.0374 13.7793 17.1416C13.6165 17.2458 13.4505 17.3369 13.2812 17.415H13.2617C13.0273 17.5062 12.7799 17.5745 12.5195 17.6201C12.2591 17.6657 11.9922 17.695 11.7188 17.708H11.6992C11.2826 17.721 10.8984 17.7308 10.5469 17.7373C10.1953 17.7438 9.47266 17.7471 8.37891 17.7471C7.28516 17.7471 6.55924 17.7471 6.20117 17.7471C5.8431 17.7471 5.45573 17.734 5.03906 17.708C5.02604 17.708 5.01302 17.708 5 17.708C4.98698 17.708 4.96745 17.708 4.94141 17.708C4.66797 17.708 4.40104 17.6852 4.14062 17.6396C3.88021 17.5941 3.63281 17.5257 3.39844 17.4346L3.41797 17.4541C3.2487 17.376 3.08594 17.2848 2.92969 17.1807C2.77344 17.0765 2.63021 16.9593 2.5 16.8291C2.36979 16.6989 2.2526 16.5524 2.14844 16.3896C2.04427 16.2269 1.95964 16.0609 1.89453 15.8916V15.8721C1.79036 15.6377 1.70898 15.387 1.65039 15.1201C1.5918 14.8532 1.5625 14.5765 1.5625 14.29C1.5625 13.8734 1.55273 13.486 1.5332 13.1279C1.51367 12.7699 1.50391 12.0439 1.50391 10.9502C1.50391 9.85645 1.50716 9.13053 1.51367 8.77246C1.52018 8.41439 1.53646 8.02702 1.5625 7.61035C1.5625 7.32389 1.58854 7.0472 1.64062 6.78027C1.69271 6.51335 1.76432 6.25618 1.85547 6.00879V6.02832C1.93359 5.84603 2.02474 5.68001 2.12891 5.53027C2.23307 5.38053 2.35677 5.24056 2.5 5.11035C2.63021 4.98014 2.77018 4.85645 2.91992 4.73926C3.06966 4.62207 3.22917 4.53092 3.39844 4.46582L3.41797 4.44629C3.65234 4.35514 3.90299 4.28678 4.16992 4.24121C4.43685 4.19564 4.71354 4.17285 5 4.17285C5.41667 4.17285 5.80404 4.16309 6.16211 4.14355C6.52018 4.12402 7.24609 4.11426 8.33984 4.11426C9.43359 4.11426 10.1595 4.11751 10.5176 4.12402C10.8757 4.13053 11.263 4.14681 11.6797 4.17285C11.9531 4.17285 12.2233 4.19889 12.4902 4.25098C12.7572 4.30306 13.0143 4.37467 13.2617 4.46582L13.2227 4.44629C13.418 4.52441 13.597 4.61882 13.7598 4.72949C13.9225 4.84017 14.0755 4.96712 14.2188 5.11035C14.349 5.24056 14.4661 5.38053 14.5703 5.53027C14.6745 5.68001 14.7591 5.83952 14.8242 6.00879L14.8438 6.02832C14.9349 6.2627 15.0033 6.51335 15.0488 6.78027C15.0944 7.0472 15.1172 7.32389 15.1172 7.61035C15.1432 8.02702 15.1595 8.41439 15.166 8.77246C15.1725 9.13053 15.1758 9.85645 15.1758 10.9502C15.1758 12.0439 15.1725 12.7699 15.166 13.1279C15.1595 13.486 15.1432 13.8734 15.1172 14.29ZM8.33984 6.67285C7.75391 6.67285 7.20052 6.78353 6.67969 7.00488C6.15885 7.23926 5.70638 7.5485 5.32227 7.93262C4.93815 8.31673 4.63542 8.76921 4.41406 9.29004C4.19271 9.81087 4.08203 10.3643 4.08203 10.9502C4.08203 11.5361 4.19271 12.0895 4.41406 12.6104C4.63542 13.1312 4.93815 13.5837 5.32227 13.9678C5.70638 14.3519 6.15885 14.6611 6.67969 14.8955C7.20052 15.1169 7.75391 15.2275 8.33984 15.2275C8.9388 15.2275 9.4987 15.1169 10.0195 14.8955C10.5273 14.6611 10.9766 14.3519 11.3672 13.9678C11.7578 13.5837 12.0638 13.1312 12.2852 12.6104C12.5065 12.0895 12.6172 11.5361 12.6172 10.9502C12.6172 10.3512 12.5065 9.79785 12.2852 9.29004C12.0638 8.76921 11.7611 8.31348 11.377 7.92285C10.9928 7.53223 10.5404 7.22624 10.0195 7.00488C9.4987 6.78353 8.94531 6.67285 8.35938 6.67285C8.35938 6.67285 8.35612 6.67285 8.34961 6.67285C8.3431 6.67285 8.33984 6.67285 8.33984 6.67285ZM8.33984 13.7236C7.57161 13.7236 6.91732 13.4535 6.37695 12.9131C5.83659 12.3727 5.56641 11.7184 5.56641 10.9502C5.56641 10.182 5.83659 9.52767 6.37695 8.9873C6.91732 8.44694 7.57161 8.17676 8.33984 8.17676C9.10807 8.17676 9.76237 8.44694 10.3027 8.9873C10.8431 9.52767 11.1133 10.182 11.1133 10.9502C11.1133 11.7184 10.8431 12.3727 10.3027 12.9131C9.76237 13.4535 9.10807 13.7236 8.33984 13.7236Z" fill="white"/>
</svg>
