<svg width="20" height="21" viewBox="0 0 20 21" fill="none" xmlns="http://www.w3.org/2000/svg">
<path d="M16.6992 5.77393C16.4128 5.90413 16.1035 6.01481 15.7715 6.10596C15.4395 6.1971 15.1042 6.26872 14.7656 6.3208H14.7266C15.0781 6.09945 15.3841 5.82926 15.6445 5.51025C15.9049 5.19124 16.1003 4.83643 16.2305 4.4458V4.42627C15.918 4.60856 15.5827 4.77132 15.2246 4.91455C14.8665 5.05778 14.4922 5.16846 14.1016 5.24658L14.0625 5.26611C13.75 4.92757 13.3757 4.65739 12.9395 4.45557C12.5033 4.25374 12.0378 4.15283 11.543 4.15283C10.6055 4.15283 9.80143 4.48812 9.13086 5.15869C8.46029 5.82926 8.125 6.6333 8.125 7.5708C8.125 7.71403 8.13477 7.854 8.1543 7.99072C8.17383 8.12744 8.19661 8.26091 8.22266 8.39111V8.37158C7.51953 8.33252 6.83594 8.22184 6.17188 8.03955C5.50781 7.85726 4.8763 7.61312 4.27734 7.30713C3.67839 7.00114 3.11849 6.63981 2.59766 6.22314C2.08984 5.79346 1.62109 5.32471 1.19141 4.81689V4.79736C1.04818 5.04476 0.934245 5.31494 0.849609 5.60791C0.764974 5.90088 0.722656 6.20361 0.722656 6.51611C0.722656 6.52913 0.722656 6.53564 0.722656 6.53564C0.722656 7.12158 0.859375 7.66195 1.13281 8.15674C1.40625 8.65153 1.77083 9.05518 2.22656 9.36768H2.24609C1.95964 9.35466 1.68294 9.31234 1.41602 9.24072C1.14909 9.16911 0.904948 9.0682 0.683594 8.93799V8.97705C0.696615 9.79736 0.963542 10.52 1.48438 11.145C2.00521 11.77 2.64974 12.1606 3.41797 12.3169H3.4375C3.30729 12.356 3.16406 12.3885 3.00781 12.4146C2.85156 12.4406 2.6888 12.4536 2.51953 12.4536C2.41536 12.4536 2.30794 12.4504 2.19727 12.4438C2.08659 12.4373 1.97266 12.4211 1.85547 12.395H1.875C2.10938 13.0851 2.51628 13.6483 3.0957 14.0845C3.67513 14.5207 4.33594 14.7453 5.07812 14.7583C4.50521 15.214 3.85742 15.5721 3.13477 15.8325C2.41211 16.0929 1.65365 16.2297 0.859375 16.2427C0.859375 16.2427 0.85612 16.2427 0.849609 16.2427C0.843099 16.2427 0.839844 16.2427 0.839844 16.2427C0.696615 16.2427 0.553385 16.2362 0.410156 16.2231C0.266927 16.2101 0.130208 16.1971 0 16.1841H0.0195312C0.761719 16.6659 1.57552 17.0435 2.46094 17.3169C3.34635 17.5903 4.27734 17.7271 5.25391 17.7271C5.25391 17.7271 5.25716 17.7271 5.26367 17.7271C5.27018 17.7271 5.27344 17.7271 5.27344 17.7271C5.28646 17.7271 5.29948 17.7271 5.3125 17.7271C5.32552 17.7271 5.34505 17.7271 5.37109 17.7271C6.69922 17.7271 7.94922 17.4731 9.12109 16.9653C10.293 16.4575 11.3184 15.7674 12.1973 14.895C13.0762 14.0226 13.763 13.0005 14.2578 11.8286C14.7656 10.6567 15.0195 9.40023 15.0195 8.05908C15.0195 8.04606 15.0195 8.03304 15.0195 8.02002C15.0195 8.007 15.0195 7.99398 15.0195 7.98096V8.00049C15.0195 7.92236 15.0195 7.84749 15.0195 7.77588C15.0195 7.70426 15.0195 7.62939 15.0195 7.55127C15.3451 7.30387 15.6478 7.03369 15.9277 6.74072C16.2077 6.44775 16.4583 6.13851 16.6797 5.81299L16.6992 5.77393Z" fill="#5DAED5"/>
</svg>
