<svg width="20" height="21" viewBox="0 0 20 21" fill="none" xmlns="http://www.w3.org/2000/svg">
<path d="M16.6992 5.77441C16.4128 5.90462 16.1035 6.0153 15.7715 6.10645C15.4395 6.19759 15.1042 6.26921 14.7656 6.32129H14.7266C15.0781 6.09993 15.3841 5.82975 15.6445 5.51074C15.9049 5.19173 16.1003 4.83691 16.2305 4.44629V4.42676C15.918 4.60905 15.5827 4.77181 15.2246 4.91504C14.8665 5.05827 14.4922 5.16895 14.1016 5.24707L14.0625 5.2666C13.75 4.92806 13.3757 4.65788 12.9395 4.45605C12.5033 4.25423 12.0378 4.15332 11.543 4.15332C10.6055 4.15332 9.80143 4.48861 9.13086 5.15918C8.46029 5.82975 8.125 6.63379 8.125 7.57129C8.125 7.71452 8.13477 7.85449 8.1543 7.99121C8.17383 8.12793 8.19661 8.26139 8.22266 8.3916V8.37207C7.51953 8.33301 6.83594 8.22233 6.17188 8.04004C5.50781 7.85775 4.8763 7.61361 4.27734 7.30762C3.67839 7.00163 3.11849 6.6403 2.59766 6.22363C2.08984 5.79395 1.62109 5.3252 1.19141 4.81738V4.79785C1.04818 5.04525 0.934245 5.31543 0.849609 5.6084C0.764974 5.90137 0.722656 6.2041 0.722656 6.5166C0.722656 6.52962 0.722656 6.53613 0.722656 6.53613C0.722656 7.12207 0.859375 7.66243 1.13281 8.15723C1.40625 8.65202 1.77083 9.05566 2.22656 9.36816H2.24609C1.95964 9.35514 1.68294 9.31283 1.41602 9.24121C1.14909 9.1696 0.904948 9.06868 0.683594 8.93848V8.97754C0.696615 9.79785 0.963542 10.5205 1.48438 11.1455C2.00521 11.7705 2.64974 12.1611 3.41797 12.3174H3.4375C3.30729 12.3564 3.16406 12.389 3.00781 12.415C2.85156 12.4411 2.6888 12.4541 2.51953 12.4541C2.41536 12.4541 2.30794 12.4508 2.19727 12.4443C2.08659 12.4378 1.97266 12.4215 1.85547 12.3955H1.875C2.10938 13.0856 2.51628 13.6488 3.0957 14.085C3.67513 14.5212 4.33594 14.7458 5.07812 14.7588C4.50521 15.2145 3.85742 15.5726 3.13477 15.833C2.41211 16.0934 1.65365 16.2301 0.859375 16.2432C0.859375 16.2432 0.85612 16.2432 0.849609 16.2432C0.843099 16.2432 0.839844 16.2432 0.839844 16.2432C0.696615 16.2432 0.553385 16.2367 0.410156 16.2236C0.266927 16.2106 0.130208 16.1976 0 16.1846H0.0195312C0.761719 16.6663 1.57552 17.0439 2.46094 17.3174C3.34635 17.5908 4.27734 17.7275 5.25391 17.7275C5.25391 17.7275 5.25716 17.7275 5.26367 17.7275C5.27018 17.7275 5.27344 17.7275 5.27344 17.7275C5.28646 17.7275 5.29948 17.7275 5.3125 17.7275C5.32552 17.7275 5.34505 17.7275 5.37109 17.7275C6.69922 17.7275 7.94922 17.4736 9.12109 16.9658C10.293 16.458 11.3184 15.7679 12.1973 14.8955C13.0762 14.0231 13.763 13.001 14.2578 11.8291C14.7656 10.6572 15.0195 9.40072 15.0195 8.05957C15.0195 8.04655 15.0195 8.03353 15.0195 8.02051C15.0195 8.00749 15.0195 7.99447 15.0195 7.98145V8.00098C15.0195 7.92285 15.0195 7.84798 15.0195 7.77637C15.0195 7.70475 15.0195 7.62988 15.0195 7.55176C15.3451 7.30436 15.6478 7.03418 15.9277 6.74121C16.2077 6.44824 16.4583 6.139 16.6797 5.81348L16.6992 5.77441Z" fill="white"/>
</svg>
