<svg width="20" height="21" viewBox="0 0 20 21" fill="none" xmlns="http://www.w3.org/2000/svg">
<path d="M18.3398 9.03613C18.3398 8.99707 18.3431 8.95801 18.3496 8.91895C18.3561 8.87988 18.3594 8.84082 18.3594 8.80176C18.3594 8.21582 18.291 7.64941 18.1543 7.10254C18.0176 6.55566 17.8255 6.04134 17.5781 5.55957L17.5977 5.59863C17.4154 5.3903 17.2038 5.21452 16.9629 5.07129C16.722 4.92806 16.4583 4.8304 16.1719 4.77832L16.1523 4.75879C15.2669 4.68066 14.3229 4.61882 13.3203 4.57324C12.3177 4.52767 11.2956 4.50488 10.2539 4.50488C10.0586 4.50488 9.86979 4.50488 9.6875 4.50488C9.50521 4.50488 9.31641 4.50488 9.12109 4.50488H9.17969C9.01042 4.50488 8.82812 4.50488 8.63281 4.50488C8.4375 4.50488 8.24219 4.50488 8.04688 4.50488C7.03125 4.50488 6.01562 4.52767 5 4.57324C3.98438 4.61882 2.97526 4.68717 1.97266 4.77832L2.22656 4.75879C1.99219 4.79785 1.77083 4.87272 1.5625 4.9834C1.35417 5.09408 1.17188 5.22754 1.01562 5.38379C0.638021 5.72233 0.400391 6.15853 0.302734 6.69238C0.205078 7.22624 0.136719 7.74707 0.0976562 8.25488C0.0716146 8.65853 0.0488281 9.09147 0.0292969 9.55371C0.00976562 10.016 0 10.4814 0 10.9502C0 11.4189 0.00976562 11.891 0.0292969 12.3662C0.0488281 12.8415 0.0716146 13.3135 0.0976562 13.7822V13.6455C0.110677 13.945 0.139974 14.238 0.185547 14.5244C0.23112 14.8109 0.286458 15.0908 0.351562 15.3643V15.3252C0.403646 15.5335 0.478516 15.7354 0.576172 15.9307C0.673828 16.126 0.794271 16.3018 0.9375 16.458C1.10677 16.6143 1.29557 16.7477 1.50391 16.8584C1.71224 16.9691 1.93359 17.0505 2.16797 17.1025H2.1875C2.8776 17.1937 3.61328 17.262 4.39453 17.3076C5.17578 17.3532 5.97656 17.376 6.79688 17.376C6.9401 17.376 7.08008 17.376 7.2168 17.376C7.35352 17.376 7.49349 17.376 7.63672 17.376H7.59766C8.32682 17.389 9.03646 17.3955 9.72656 17.3955C10.4167 17.3955 11.11 17.3857 11.8066 17.3662C12.5033 17.3467 13.2031 17.3174 13.9062 17.2783C14.6094 17.2393 15.3385 17.1937 16.0938 17.1416C16.3411 17.1025 16.5723 17.0244 16.7871 16.9072C17.002 16.79 17.194 16.6533 17.3633 16.4971C17.4805 16.3799 17.5814 16.2529 17.666 16.1162C17.7507 15.9795 17.819 15.833 17.8711 15.6768V15.6572C18.0143 15.2536 18.125 14.8206 18.2031 14.3584C18.2812 13.8962 18.3203 13.4176 18.3203 12.9229C18.3203 12.9098 18.3203 12.8936 18.3203 12.874C18.3203 12.8545 18.3203 12.8382 18.3203 12.8252C18.3333 12.5908 18.3398 11.9626 18.3398 10.9404C18.3398 9.91829 18.3398 9.28353 18.3398 9.03613ZM7.30469 13.333V8.15723L12.2266 10.7549C11.5365 11.1455 10.7585 11.5557 9.89258 11.9854C9.02669 12.415 8.16406 12.8643 7.30469 13.333Z" fill="white"/>
</svg>
